<svg version="1.1" xmlns="http://www.w3.org/2000/svg" viewBox="0 0 422 221" width="422" height="221">
  <!-- svg-source:excalidraw -->
  
  <defs>
    <style class="style-fonts">
      @font-face {
        font-family: "Virgil";
        src: url("https://excalidraw.com/Virgil.woff2");
      }
      @font-face {
        font-family: "Cascadia";
        src: url("https://excalidraw.com/Cascadia.woff2");
      }
    </style>
  </defs>
  <rect x="0" y="0" width="422" height="221" fill="#ffffff"/><g transform="translate(117 59) rotate(0 -7.5 59.5)" stroke="none"><path fill="#000000" d="M 1.54,-0.25 Q 1.54,-0.25 2.36,4.92 3.19,10.10 4.40,18.93 5.61,27.77 6.98,37.26 8.34,46.76 9.49,55.69 10.65,64.63 11.42,72.17 12.20,79.72 13.09,87.52 13.99,95.31 14.95,103.22 15.90,111.13 16.88,117.35 17.86,123.56 19.13,129.63 20.40,135.70 21.23,139.74 22.06,143.77 22.42,146.10 22.78,148.43 22.77,149.37 22.76,150.32 22.76,150.51 22.77,150.70 22.73,150.88 22.69,151.07 22.61,151.24 22.52,151.41 22.40,151.56 22.28,151.70 22.13,151.82 21.98,151.93 21.80,152.00 21.62,152.08 21.44,152.10 21.25,152.13 21.06,152.12 20.87,152.10 20.69,152.04 20.51,151.98 20.35,151.87 20.19,151.77 20.06,151.63 19.93,151.49 19.84,151.33 19.74,151.16 19.69,150.98 19.64,150.80 18.35,150.58 17.05,150.35 10.04,142.98 3.04,135.60 -11.10,116.95 -25.24,98.30 -37.28,81.18 -49.31,64.05 -58.46,50.15 -67.61,36.25 -74.36,26.04 -81.11,15.83 -86.59,6.57 -92.07,-2.68 -95.26,-8.64 -98.46,-14.60 -100.68,-19.15 -102.91,-23.71 -104.40,-26.17 -105.88,-28.62 -106.33,-30.19 -106.78,-31.75 -106.18,-32.72 -105.59,-33.68 -102.10,-34.02 -98.61,-34.35 -87.45,-33.81 -76.30,-33.28 -59.51,-32.46 -42.73,-31.64 -22.38,-30.71 -2.02,-29.78 13.82,-28.80 29.67,-27.82 41.27,-27.40 52.87,-26.98 60.10,-26.80 67.33,-26.61 72.16,-26.24 77.00,-25.87 80.17,-25.72 83.34,-25.56 85.55,-25.49 87.75,-25.42 89.51,-25.48 91.26,-25.54 91.50,-25.49 91.74,-25.44 91.96,-25.32 92.17,-25.20 92.34,-25.02 92.50,-24.84 92.60,-24.61 92.70,-24.39 92.72,-24.14 92.74,-23.90 92.68,-23.66 92.62,-23.42 92.49,-23.21 92.36,-23.00 92.17,-22.85 91.98,-22.69 91.75,-22.60 91.52,-22.52 91.27,-22.51 91.02,-22.50 90.79,-22.57 90.55,-22.64 90.35,-22.79 90.15,-22.93 90.01,-23.13 89.86,-23.33 89.79,-23.56 89.71,-23.80 89.72,-24.05 89.73,-24.29 89.81,-24.52 89.89,-24.76 90.05,-24.95 90.20,-25.14 90.41,-25.28 90.61,-25.41 90.85,-25.47 91.09,-25.53 91.34,-25.51 91.58,-25.49 91.81,-25.40 92.04,-25.30 92.22,-25.14 92.40,-24.97 92.53,-24.76 92.65,-24.54 92.70,-24.30 92.74,-24.06 92.71,-23.82 92.68,-23.57 92.57,-23.35 92.46,-23.13 92.29,-22.95 92.12,-22.78 91.90,-22.67 91.68,-22.56 91.43,-22.52 91.19,-22.49 91.19,-22.49 91.19,-22.49 89.43,-22.63 87.68,-22.76 85.45,-22.82 83.21,-22.88 80.01,-23.03 76.80,-23.18 72.03,-23.54 67.26,-23.89 60.02,-24.05 52.77,-24.22 41.13,-24.62 29.50,-25.01 13.67,-25.96 -2.15,-26.90 -22.51,-27.78 -42.87,-28.67 -59.65,-29.42 -76.43,-30.17 -87.42,-30.62 -98.41,-31.07 -101.02,-30.52 -103.62,-29.97 -102.08,-27.42 -100.53,-24.87 -98.33,-20.36 -96.12,-15.85 -92.95,-9.94 -89.78,-4.03 -84.34,5.16 -78.89,14.36 -72.13,24.57 -65.37,34.78 -56.24,48.64 -47.11,62.50 -35.09,79.58 -23.07,96.65 -9.00,115.18 5.05,133.71 11.63,140.76 18.21,147.81 20.48,149.07 22.76,150.32 22.76,150.51 22.77,150.70 22.73,150.88 22.69,151.07 22.61,151.24 22.52,151.41 22.40,151.56 22.28,151.70 22.13,151.82 21.98,151.93 21.80,152.00 21.62,152.08 21.44,152.10 21.25,152.13 21.06,152.12 20.87,152.10 20.69,152.04 20.51,151.98 20.35,151.87 20.19,151.77 20.06,151.63 19.93,151.50 19.84,151.33 19.74,151.16 19.69,150.98 19.64,150.80 19.90,149.80 20.17,148.80 19.82,146.55 19.47,144.30 18.64,140.28 17.80,136.25 16.51,130.11 15.23,123.98 14.24,117.72 13.24,111.46 12.28,103.54 11.31,95.62 10.40,87.81 9.48,80.00 8.69,72.49 7.90,64.98 6.73,56.07 5.55,47.16 4.15,37.67 2.75,28.17 1.50,19.38 0.25,10.59 -0.64,5.42 -1.54,0.25 -1.54,0.06 -1.55,-0.11 -1.52,-0.30 -1.48,-0.48 -1.40,-0.65 -1.32,-0.82 -1.20,-0.97 -1.08,-1.12 -0.93,-1.23 -0.78,-1.34 -0.61,-1.42 -0.44,-1.49 -0.25,-1.52 -0.06,-1.56 0.11,-1.54 0.30,-1.53 0.48,-1.47 0.66,-1.41 0.82,-1.31 0.98,-1.21 1.11,-1.07 1.24,-0.94 1.33,-0.78 1.43,-0.61 1.48,-0.43 1.54,-0.25 1.54,-0.25 L 1.54,-0.25 Z"/></g><g transform="translate(178 185) rotate(0 23.5 -25.5)" stroke="none"><path fill="#000000" d="M -0.70,-1.58 Q -0.70,-1.58 1.90,-2.68 4.51,-3.78 8.22,-5.38 11.92,-6.98 18.40,-9.67 24.88,-12.35 30.51,-14.64 36.15,-16.92 40.55,-18.74 44.95,-20.57 48.49,-22.46 52.03,-24.35 53.75,-25.67 55.47,-27.00 56.35,-28.34 57.22,-29.69 57.51,-30.78 57.80,-31.87 56.38,-34.06 54.96,-36.25 51.39,-38.61 47.81,-40.97 42.04,-43.15 36.26,-45.33 28.71,-46.55 21.15,-47.77 15.34,-48.31 9.53,-48.84 5.10,-48.78 0.67,-48.73 -2.54,-48.15 -5.77,-47.57 -8.69,-45.69 -11.61,-43.80 -13.96,-41.07 -16.31,-38.34 -17.88,-35.79 -19.44,-33.24 -20.06,-30.30 -20.68,-27.37 -20.39,-24.22 -20.10,-21.07 -19.16,-18.68 -18.23,-16.29 -16.48,-14.22 -14.74,-12.16 -12.09,-10.48 -9.44,-8.79 -3.82,-7.23 1.79,-5.68 8.17,-5.00 14.55,-4.33 23.29,-4.04 32.04,-3.74 38.64,-3.62 45.25,-3.49 50.06,-3.44 54.88,-3.39 58.25,-3.93 61.62,-4.47 63.79,-5.52 65.97,-6.56 67.21,-7.64 68.46,-8.72 68.67,-8.84 68.89,-8.95 69.13,-8.99 69.37,-9.03 69.61,-8.99 69.85,-8.95 70.07,-8.83 70.28,-8.72 70.45,-8.54 70.62,-8.36 70.72,-8.14 70.82,-7.92 70.85,-7.68 70.87,-7.44 70.82,-7.20 70.77,-6.96 70.64,-6.75 70.52,-6.54 70.33,-6.38 70.14,-6.23 69.92,-6.14 69.69,-6.05 69.45,-6.03 69.20,-6.02 68.97,-6.09 68.73,-6.15 68.53,-6.29 68.33,-6.43 68.18,-6.62 68.03,-6.82 67.96,-7.05 67.88,-7.28 67.88,-7.53 67.88,-7.77 67.96,-8.00 68.04,-8.23 68.19,-8.43 68.33,-8.62 68.54,-8.76 68.74,-8.89 68.97,-8.96 69.21,-9.02 69.45,-9.01 69.70,-8.99 69.92,-8.90 70.15,-8.81 70.34,-8.65 70.52,-8.49 70.65,-8.29 70.77,-8.08 70.82,-7.84 70.88,-7.60 70.85,-7.36 70.82,-7.11 70.72,-6.89 70.62,-6.67 70.45,-6.49 70.28,-6.32 70.28,-6.32 70.28,-6.32 68.69,-5.25 67.09,-4.19 64.58,-3.04 62.06,-1.89 58.46,-1.32 54.85,-0.76 50.02,-0.81 45.20,-0.87 38.57,-0.99 31.95,-1.12 23.11,-1.42 14.27,-1.71 7.67,-2.43 1.08,-3.14 -4.87,-4.86 -10.84,-6.57 -13.79,-8.51 -16.74,-10.46 -18.70,-12.88 -20.67,-15.31 -21.69,-18.06 -22.72,-20.82 -22.99,-24.36 -23.26,-27.90 -22.49,-31.24 -21.72,-34.59 -20.02,-37.34 -18.32,-40.09 -15.69,-43.07 -13.07,-46.05 -9.69,-48.12 -6.31,-50.20 -2.84,-50.83 0.63,-51.45 5.20,-51.52 9.78,-51.59 15.69,-51.07 21.60,-50.55 29.43,-49.30 37.27,-48.04 43.36,-45.75 49.46,-43.45 53.51,-40.69 57.56,-37.92 59.21,-34.83 60.86,-31.74 60.25,-29.87 59.64,-27.99 58.40,-26.43 57.15,-24.87 55.24,-23.40 53.33,-21.93 49.68,-19.96 46.03,-17.98 41.63,-16.13 37.23,-14.27 31.63,-11.95 26.03,-9.63 19.60,-6.90 13.17,-4.17 9.50,-2.49 5.83,-0.81 3.27,0.38 0.70,1.58 0.50,1.64 0.30,1.71 0.09,1.72 -0.11,1.73 -0.31,1.69 -0.52,1.65 -0.71,1.57 -0.90,1.48 -1.07,1.35 -1.23,1.22 -1.36,1.05 -1.49,0.89 -1.57,0.70 -1.66,0.50 -1.69,0.30 -1.73,0.09 -1.72,-0.11 -1.70,-0.32 -1.64,-0.52 -1.58,-0.72 -1.47,-0.89 -1.36,-1.07 -1.21,-1.22 -1.06,-1.37 -0.88,-1.48 -0.70,-1.58 -0.70,-1.58 L -0.70,-1.58 Z"/></g><g transform="translate(309 126) rotate(0 -19.5 37.5)" stroke="none"><path fill="#000000" d="M 0.14,1.56 Q 0.14,1.56 -3.02,1.82 -6.18,2.07 -8.93,2.45 -11.67,2.83 -18.55,4.41 -25.43,5.99 -31.20,7.80 -36.97,9.60 -41.13,11.22 -45.29,12.84 -48.11,14.62 -50.93,16.41 -52.26,17.37 -53.59,18.34 -53.07,20.22 -52.54,22.09 -49.37,24.21 -46.20,26.33 -37.38,30.75 -28.56,35.18 -21.02,39.40 -13.47,43.62 -6.78,48.02 -0.09,52.42 4.49,56.04 9.09,59.66 11.67,62.40 14.25,65.14 15.64,66.90 17.03,68.66 17.67,70.64 18.32,72.63 17.32,73.88 16.32,75.14 12.06,75.62 7.80,76.10 3.11,75.34 -1.58,74.58 -5.82,73.66 -10.07,72.74 -11.87,72.41 -13.67,72.08 -13.90,71.99 -14.14,71.90 -14.34,71.74 -14.53,71.57 -14.66,71.36 -14.80,71.14 -14.85,70.90 -14.91,70.65 -14.89,70.40 -14.86,70.14 -14.76,69.91 -14.65,69.68 -14.48,69.50 -14.31,69.31 -14.09,69.19 -13.86,69.07 -13.61,69.02 -13.37,68.98 -13.11,69.02 -12.86,69.05 -12.64,69.17 -12.41,69.29 -12.24,69.47 -12.06,69.65 -11.95,69.88 -11.84,70.11 -11.81,70.36 -11.78,70.61 -11.83,70.86 -11.88,71.11 -12.01,71.33 -12.14,71.55 -12.33,71.71 -12.52,71.88 -12.76,71.98 -12.99,72.07 -13.25,72.09 -13.50,72.11 -13.74,72.04 -13.99,71.98 -14.20,71.84 -14.41,71.70 -14.57,71.50 -14.72,71.30 -14.81,71.06 -14.89,70.82 -14.89,70.56 -14.90,70.31 -14.82,70.07 -14.74,69.83 -14.59,69.62 -14.44,69.42 -14.23,69.28 -14.02,69.13 -13.78,69.06 -13.53,68.99 -13.28,69.00 -13.03,69.01 -13.03,69.01 -13.03,69.01 -11.25,69.42 -9.46,69.84 -5.28,70.68 -1.09,71.52 3.21,72.18 7.52,72.84 10.94,72.60 14.35,72.37 14.65,71.32 14.95,70.27 13.64,68.61 12.32,66.95 9.89,64.34 7.45,61.73 2.94,58.19 -1.55,54.64 -8.16,50.29 -14.77,45.94 -22.27,41.76 -29.77,37.57 -38.77,33.05 -47.76,28.52 -51.34,25.80 -54.92,23.09 -55.39,20.36 -55.86,17.63 -54.12,15.87 -52.38,14.12 -49.33,12.21 -46.29,10.30 -42.05,8.63 -37.81,6.96 -31.94,5.10 -26.07,3.24 -19.08,1.59 -12.10,-0.04 -9.28,-0.48 -6.46,-0.92 -3.30,-1.24 -0.14,-1.56 0.04,-1.56 0.23,-1.55 0.42,-1.50 0.60,-1.45 0.76,-1.36 0.93,-1.26 1.07,-1.13 1.21,-1.00 1.31,-0.84 1.41,-0.69 1.47,-0.51 1.54,-0.33 1.55,-0.14 1.57,0.04 1.54,0.23 1.51,0.42 1.44,0.59 1.37,0.77 1.26,0.92 1.14,1.08 1.00,1.20 0.85,1.32 0.68,1.40 0.51,1.49 0.32,1.53 0.14,1.56 0.14,1.56 L 0.14,1.56 Z"/></g><g transform="translate(347 10) rotate(0 21.5 91)" stroke="none"><path fill="#000000" d="M 1.57,-0.26 Q 1.57,-0.26 1.90,1.45 2.22,3.17 3.14,6.40 4.05,9.64 4.74,13.43 5.43,17.23 6.27,20.79 7.11,24.34 8.04,28.17 8.97,32.00 10.23,37.96 11.48,43.93 12.31,50.24 13.13,56.56 14.34,67.00 15.54,77.43 16.92,88.47 18.29,99.51 20.02,113.11 21.75,126.71 23.35,136.21 24.94,145.70 26.19,153.49 27.45,161.28 28.27,166.31 29.09,171.34 29.71,174.01 30.34,176.68 30.68,178.33 31.02,179.97 30.71,180.37 30.40,180.77 30.41,180.98 30.42,181.19 30.39,181.40 30.35,181.60 30.26,181.80 30.18,181.99 30.05,182.16 29.92,182.32 29.75,182.45 29.59,182.59 29.40,182.67 29.20,182.76 29.00,182.80 28.79,182.84 28.58,182.83 28.37,182.81 28.16,182.75 27.96,182.69 27.78,182.58 27.60,182.47 27.45,182.32 27.30,182.18 27.19,182.00 27.08,181.82 27.02,181.61 26.95,181.41 25.10,179.75 23.25,178.09 20.24,174.25 17.23,170.41 12.82,164.49 8.40,158.56 3.36,151.43 -1.67,144.30 -4.96,139.54 -8.25,134.79 -11.10,130.15 -13.95,125.51 -15.98,122.73 -18.02,119.95 -19.50,117.56 -20.98,115.16 -21.73,113.51 -22.47,111.87 -22.74,110.40 -23.01,108.93 -22.13,107.73 -21.26,106.53 -15.91,105.54 -10.57,104.55 -3.19,104.23 4.17,103.91 13.92,104.08 23.68,104.25 32.42,104.63 41.16,105.00 47.76,105.46 54.36,105.92 58.76,106.07 63.16,106.22 63.42,106.28 63.68,106.34 63.91,106.48 64.14,106.62 64.31,106.83 64.48,107.03 64.58,107.28 64.68,107.53 64.69,107.80 64.71,108.07 64.63,108.33 64.56,108.58 64.41,108.81 64.26,109.03 64.04,109.19 63.83,109.35 63.57,109.43 63.32,109.52 63.05,109.52 62.78,109.52 62.53,109.43 62.27,109.34 62.06,109.18 61.85,109.01 61.70,108.79 61.55,108.57 61.48,108.31 61.41,108.05 61.42,107.78 61.44,107.51 61.54,107.26 61.64,107.02 61.81,106.81 61.99,106.61 62.22,106.47 62.45,106.33 62.71,106.28 62.98,106.22 63.24,106.25 63.51,106.28 63.75,106.40 64.00,106.51 64.19,106.70 64.38,106.88 64.51,107.12 64.63,107.36 64.67,107.62 64.72,107.89 64.67,108.15 64.63,108.42 64.50,108.65 64.37,108.89 64.18,109.07 63.98,109.26 63.74,109.37 63.49,109.48 63.22,109.51 62.96,109.54 62.96,109.54 62.96,109.54 58.56,109.16 54.17,108.79 47.61,108.38 41.04,107.97 32.34,107.66 23.63,107.35 13.99,107.26 4.34,107.18 -2.81,107.60 -9.96,108.01 -14.83,109.39 -19.69,110.77 -19.20,112.27 -18.71,113.77 -17.29,116.07 -15.86,118.37 -13.76,121.23 -11.66,124.10 -8.83,128.67 -6.01,133.24 -2.72,137.97 0.57,142.71 5.61,149.79 10.65,156.88 15.06,162.76 19.48,168.64 22.37,172.28 25.26,175.93 27.83,178.35 30.40,180.77 30.41,180.98 30.42,181.19 30.39,181.40 30.35,181.60 30.26,181.80 30.18,181.99 30.05,182.16 29.92,182.32 29.75,182.45 29.59,182.58 29.40,182.67 29.20,182.76 29.00,182.80 28.79,182.84 28.58,182.83 28.37,182.81 28.16,182.75 27.96,182.69 27.78,182.58 27.60,182.47 27.45,182.32 27.30,182.18 27.19,182.00 27.08,181.82 27.02,181.61 26.95,181.41 27.56,180.58 28.17,179.76 27.97,178.52 27.77,177.28 27.12,174.53 26.48,171.77 25.66,166.73 24.83,161.70 23.58,153.92 22.32,146.14 20.71,136.60 19.11,127.05 17.37,113.44 15.63,99.84 14.24,88.79 12.86,77.74 11.64,67.33 10.42,56.92 9.59,50.71 8.77,44.51 7.49,38.59 6.22,32.68 5.26,28.86 4.29,25.03 3.38,21.41 2.47,17.79 1.75,14.16 1.03,10.53 -0.02,7.13 -1.07,3.72 -1.32,1.99 -1.57,0.26 -1.57,0.07 -1.58,-0.12 -1.54,-0.30 -1.51,-0.49 -1.43,-0.67 -1.34,-0.84 -1.22,-0.99 -1.10,-1.14 -0.95,-1.25 -0.80,-1.37 -0.62,-1.45 -0.44,-1.52 -0.25,-1.55 -0.07,-1.59 0.12,-1.57 0.31,-1.56 0.49,-1.50 0.67,-1.44 0.83,-1.33 1.00,-1.23 1.13,-1.09 1.26,-0.96 1.36,-0.79 1.46,-0.62 1.51,-0.44 1.57,-0.26 1.57,-0.26 L 1.57,-0.26 Z"/></g></svg>